<svg xmlns="http://www.w3.org/2000/svg" viewBox="0 0 512 512" style="height: 512px; width: 512px;"><defs><radialGradient id="gradient-2"><stop offset="0%" class="waves0__stop0"></stop><stop offset="100%" class="waves0__stop1"></stop></radialGradient><radialGradient id="gradient-4"><stop offset="0%" class="waves1__stop0"></stop><stop offset="100%"  class="waves1__stop1"></stop></radialGradient></defs><g class="" transform="translate(0,0)" style="touch-action: none;"><g transform="translate(25.6, 25.6) scale(0.9, 0.9) rotate(0, 256, 256)"><path d="M400.9 104.8C388.9 134.8 359.9 152.7 301.2 148.7C287.5 146.9 273.6 144.6 259.6 142C140.5 104.8 23.36 104.8 23.36 179.2C56.84 142 141.1 148.4 248.4 175.2C365.2 204.4 490.2 216.4 490.2 123.4C471.8 142.7 436.8 152 393.6 153.8C403.6 143.4 406.1 127.1 400.9 104.8Z" fill="url(#gradient-2)"></path><path d="M147 187.5C76.25 187.2 23.36 203.6 23.36 253.6C56.84 216.4 141.1 218.8 248.4 245.6C365.2 274.8 490.2 290.8 490.2 197.8C454.8 235 360 237.4 259.6 205.8C221.9 193.9 181.6 187.6 147 187.5Z" class="" fill="#ffffff" fill-opacity="0"></path><path d="M123.1 257.1C64.66 256.9 23.36 272.7 23.36 328C56.84 290.8 145.7 283.7 248.4 309.4C369.4 339.6 490.2 346.6 490.2 272.2C454.8 309.4 358.1 294.8 259.6 276.2C211.2 268.7 163.1 257.1 123.1 257.1Z" fill="url(#gradient-4)"></path><path d="M123.1 331.4C64.66 331.3 23.36 347.2 23.36 402.4C42.39 381.3 78.88 372.1 125.9 371.6C115.5 382 113 398.5 118.2 421C132.1 386.2 170.2 369.2 248.5 383.8C371.1 406.6 490.2 421 490.2 346.6C454.8 383.8 358.1 365.2 259.6 346.6C211.2 339 163.1 331.5 123.1 331.4Z" class="" fill="#ffffff" fill-opacity="0"></path></g></g></svg>
