<svg xmlns="http://www.w3.org/2000/svg" viewBox="0 0 512 512" style="height: 360px; width: 360px;"><g class="" transform="translate(0,0)" style="touch-action: none;"><g><path d="M245.795 19.12L193.432 172.633L220.102 234.57L258.986 182.2L312.203 249.693L323.885 209.207L245.795 19.121Z" class="selected" fill="#fff" fill-opacity="1"></path><path d="M101.172 193.69L72.112 273.912L96.652 261.197L121.455 275.527L133.095 227.514L101.172 193.689Z" class="" fill="#fff" fill-opacity="1"></path><path d="M184.439 198.998L163.663 259.902L148.393 243.725L133.731 304.205L96.163 282.498L62.723 299.822L19.04 420.42L103.924 451.357L177.342 428.92L251.277 448.39L322.937 426.854L414.91 452.08L492.19 420.42L443.75 331.414L404.705 358.078L365.813 330.502L338.66 373.292L322.88 363.279L361.912 301.769L335.312 237.017L320.066 289.847L259.432 212.947L215.768 271.757L184.438 198.997Z" class="" fill="#8b572a" fill-opacity="1"></path><path d="M407.499 264.808L375.84 314.7L404.906 335.31L434.771 314.916L407.501 264.806Z" class="" fill="#ffffff" fill-opacity="1"></path></g></g></svg>